<svg xmlns="http://www.w3.org/2000/svg" width="23.08" height="29.429" viewBox="0 0 23.08 29.429">
  <path id="django" d="M10.381,0H15.2V22.085a31.871,31.871,0,0,1-6.251.651C3.064,22.73,0,20.1,0,15.051c0-4.865,3.25-8.023,8.285-8.023a7.842,7.842,0,0,1,2.1.246Zm12.7,7.621V18.679c0,3.808-.285,5.639-1.122,7.218a7.678,7.678,0,0,1-3.938,3.532l-4.471-2.107c2.127-.989,3.157-1.862,3.814-3.2.688-1.363.905-2.942.905-7.095V7.621H23.08ZM17.782,0H22.6V4.9H17.782ZM10.55,11.254a4.853,4.853,0,0,0-1.625-.246c-2.437,0-3.845,1.487-3.845,4.092,0,2.537,1.346,3.937,3.814,3.937a11.367,11.367,0,0,0,1.656-.122Z" transform="translate(0)" fill="#2ba977" fill-rule="evenodd"/>
</svg>
