<svg xmlns="http://www.w3.org/2000/svg" xmlns:xlink="http://www.w3.org/1999/xlink" width="320" height="248" viewBox="0 0 320 248">
  <defs>
    <filter id="Rectangle_6180" x="0" y="0" width="320" height="248" filterUnits="userSpaceOnUse">
      <feOffset input="SourceAlpha"/>
      <feGaussianBlur stdDeviation="7" result="blur"/>
      <feFlood flood-opacity="0.102"/>
      <feComposite operator="in" in2="blur"/>
      <feComposite in="SourceGraphic"/>
    </filter>
    <linearGradient id="linear-gradient" x1="0.5" x2="0.5" y2="1" gradientUnits="objectBoundingBox">
      <stop offset="0" stop-color="#f88a36"/>
      <stop offset="1" stop-color="#fd2020"/>
    </linearGradient>
  </defs>
  <g id="Group_17707" data-name="Group 17707" transform="translate(-784 -202)">
    <g transform="matrix(1, 0, 0, 1, 784, 202)" filter="url(#Rectangle_6180)">
      <rect id="Rectangle_6180-2" data-name="Rectangle 6180" width="278" height="206" rx="10" transform="translate(21 21)" fill="#fff"/>
    </g>
    <text id="Tech_Stack" data-name="Tech Stack" transform="translate(944 256)" font-size="16" font-family="ProximaNova-Bold, Proxima Nova" font-weight="700"><tspan x="-47" y="0">TECH STACK</tspan></text>
    <g id="Group_17709" data-name="Group 17709" transform="translate(844.055 275.676)">
      <rect id="Rectangle_6181" data-name="Rectangle 6181" width="60" height="59" rx="10" transform="translate(-0.055 0.324)" fill="#dd0031" opacity="0.08"/>
      <rect id="Rectangle_6186" data-name="Rectangle 6186" width="60" height="59" rx="10" transform="translate(-0.055 69.324)" fill="#fa4c29" opacity="0.08"/>
      <rect id="Rectangle_6182" data-name="Rectangle 6182" width="61" height="59" rx="10" transform="translate(69.945 0.324)" fill="#2ba977" opacity="0.08"/>
      <rect id="Rectangle_6185" data-name="Rectangle 6185" width="61" height="59" rx="10" transform="translate(69.945 69.324)" fill="#d33833" opacity="0.08"/>
      <rect id="Rectangle_6183" data-name="Rectangle 6183" width="60" height="59" rx="10" transform="translate(140.945 0.324)" fill="#dc395f" opacity="0.08"/>
      <rect id="Rectangle_6184" data-name="Rectangle 6184" width="60" height="59" rx="10" transform="translate(140.945 69.324)" fill="#fca326" opacity="0.08"/>
      <g id="angular" transform="translate(16.452 14.952)">
        <path id="Path_11986" data-name="Path 11986" d="M45.6,30h0L31.9,34.885,33.989,53l11.61,6.43h0L57.209,53,59.3,34.885Z" transform="translate(-31.9 -30)" fill="#dd0031"/>
        <path id="Path_11987" data-name="Path 11987" d="M125,30V48.158h0V59.429h0L136.61,53,138.7,34.885Z" transform="translate(-111.301 -30)" fill="#c3002f"/>
        <path id="Path_11988" data-name="Path 11988" d="M75.364,52.1,66.8,71.3h3.193l1.722-4.3h7.269l1.722,4.3H83.9L75.364,52.1Zm2.5,12.257h-5l2.5-6.018Z" transform="translate(-61.665 -48.848)" fill="#fff"/>
      </g>
      <g id="invision_1_" data-name="invision (1)" transform="translate(155.975 14.952)">
        <path id="Path_11989" data-name="Path 11989" d="M26.761,0H2.668A2.668,2.668,0,0,0,0,2.668V26.761a2.668,2.668,0,0,0,2.668,2.668H26.761a2.668,2.668,0,0,0,2.668-2.668V2.668A2.668,2.668,0,0,0,26.761,0" fill="#dc395f"/>
        <path id="Path_11990" data-name="Path 11990" d="M51.158,53.271a1.772,1.772,0,1,0-1.8-1.772,1.777,1.777,0,0,0,1.8,1.772M47.43,62.757a6.084,6.084,0,0,0-.159,1.331,2.372,2.372,0,0,0,2.644,2.6,4.207,4.207,0,0,0,3.57-2.315L52.954,66.5h2.961l1.692-6.787C58.03,58,58.849,57.1,60.092,57.1a1.48,1.48,0,0,1,1.586,1.613,3.167,3.167,0,0,1-.132.952l-.873,3.12a4.689,4.689,0,0,0-.185,1.322,2.413,2.413,0,0,0,2.7,2.564c1.56,0,2.8-1,3.49-3.41l-1.163-.449c-.582,1.612-1.084,1.9-1.481,1.9s-.608-.264-.608-.793a3.508,3.508,0,0,1,.132-.82l.846-3.039a6.7,6.7,0,0,0,.291-1.928c0-2.274-1.375-3.46-3.04-3.46-1.56,0-3.146,1.407-3.939,2.888l.581-2.658H53.774l-.635,2.341h2.115l-1.3,5.214a3.316,3.316,0,0,1-3.137,2.258c-.387-.087-.635-.234-.635-.737a4.986,4.986,0,0,1,.185-1.21l1.983-7.866H47.325l-.635,2.341h2.088L47.43,62.757" transform="translate(-41.323 -44.011)" fill="#fff"/>
      </g>
      <path id="django" d="M10.381,0H15.2V22.085a31.871,31.871,0,0,1-6.251.651C3.064,22.73,0,20.1,0,15.051c0-4.865,3.25-8.023,8.285-8.023a7.842,7.842,0,0,1,2.1.246Zm12.7,7.621V18.679c0,3.808-.285,5.639-1.122,7.218a7.678,7.678,0,0,1-3.938,3.532l-4.471-2.107c2.127-.989,3.157-1.862,3.814-3.2.688-1.363.905-2.942.905-7.095V7.621H23.08ZM17.782,0H22.6V4.9H17.782ZM10.55,11.254a4.853,4.853,0,0,0-1.625-.246c-2.437,0-3.845,1.487-3.845,4.092,0,2.537,1.346,3.937,3.814,3.937a11.367,11.367,0,0,0,1.656-.122Z" transform="translate(88.917 14.952)" fill="#2ba977" fill-rule="evenodd"/>
      <g id="g10" transform="translate(87.836 82.31)">
        <g id="g3393" transform="translate(0 0)">
          <path id="path22" d="M27.529-261.115a12.206,12.206,0,0,1-12.066,12.341A12.206,12.206,0,0,1,3.4-261.115a12.206,12.206,0,0,1,12.065-12.342,12.206,12.206,0,0,1,12.066,12.342" transform="translate(-3.023 277.692)" fill="#d33833" fill-rule="evenodd"/>
          <path id="path24" d="M2.665-251.756s-.873-12.87,10.985-13.238l-.827-1.379-6.435,2.16L4.55-262.1l-1.609,3.08-.919,3.585.276,2.39" transform="translate(-1.798 271.39)" fill="#ef3d3a"/>
          <path id="path26" d="M4.177-272.184A12.07,12.07,0,0,0,.75-263.719h0a12.07,12.07,0,0,0,3.427,8.464h0a11.518,11.518,0,0,0,8.264,3.5h0a11.517,11.517,0,0,0,8.264-3.5h0a12.07,12.07,0,0,0,3.427-8.464h0a12.071,12.071,0,0,0-3.427-8.465h0a11.52,11.52,0,0,0-8.264-3.5h0a11.52,11.52,0,0,0-8.264,3.5Zm-.536,17.453A12.821,12.821,0,0,1,0-263.719H0a12.821,12.821,0,0,1,3.641-8.989h0a12.269,12.269,0,0,1,8.8-3.728h0a12.268,12.268,0,0,1,8.8,3.728h0a12.82,12.82,0,0,1,3.641,8.989h0a12.819,12.819,0,0,1-3.641,8.988h0A12.27,12.27,0,0,1,12.44-251h0a12.271,12.271,0,0,1-8.8-3.728h0" transform="translate(0 280.342)" fill="#231f20"/>
          <path id="path28" d="M54.274-291.077l-1.839.276-2.482.276-1.609.046-1.563-.046-1.2-.368-1.057-1.149-.827-2.344-.184-.506-1.1-.368-.644-1.057-.46-1.517.506-1.333,1.195-.414.965.46.46,1.011.552-.092.184-.23-.184-1.057-.046-1.333.276-1.839-.011-1.05.838-1.34,1.471-1.057,2.574-1.1,2.85.414L55.423-305l1.149,1.839.735,1.333.184,3.309-.552,2.85-1.011,2.528-.965,1.333" transform="translate(-36.755 307.722)" fill="#f0d6b7" fill-rule="evenodd"/>
          <path id="path30" d="M40.108-158.2l-6.573.276v1.1l.552,3.861-.276.322-4.6-1.563-.322-.552-.46-5.194-1.057-3.126-.23-.735,3.677-2.528,1.149-.46,1.011,1.241.873.781,1.011.322.46.138.552,2.39.414.506,1.057-.368-.736,1.425,4,1.884-.506.276" transform="translate(-24.151 182.796)" fill="#335061" fill-rule="evenodd"/>
          <path id="path32" d="M44.412-295.83l1.195-.414.965.46.46,1.011.552-.092.138-.552-.276-1.057L47.722-299l-.23-1.379.827-.965,1.793-1.425-.506-.689-2.528,1.241-1.057.827-.6,1.287-.919,1.241-.276,1.471.184,1.563" transform="translate(-39.349 304.386)" fill="#6d6b6d" fill-rule="evenodd"/>
          <path id="path34" d="M54.453-298.9s.689-1.7,3.447-2.528.138-.6.138-.6l-2.988,1.149L53.9-299.732l-.506.919,1.057-.092" transform="translate(-47.506 303.14)" fill="#dcd9d8" fill-rule="evenodd"/>
          <path id="path36" d="M44.918-271.315s-.965-3.218,2.712-3.677l-.138-.552-2.528.6-.736,2.39.184,1.563.506-.322" transform="translate(-39.349 279.549)" fill="#dcd9d8" fill-rule="evenodd"/>
          <path id="path38" d="M63.812-203.163l.6-.583a.388.388,0,0,1,.318.353c.046.322.184,3.218,2.16,4.78.18.143-1.471-.23-1.471-.23l-1.471-2.3" transform="translate(-56.773 215.672)" fill="#f7e4cd" fill-rule="evenodd"/>
          <path id="path40" d="M140.463-216.8s.107-1.393.482-1.286a.516.516,0,0,1,.375.482s-.911.59-.858.8" transform="translate(-124.966 228.432)" fill="#f7e4cd" fill-rule="evenodd"/>
          <path id="path42" d="M168.359-252.626s-.758.16-.827.827.827.138.965.092" transform="translate(-149.047 259.16)" fill="#f7e4cd"/>
          <path id="path44" d="M116.49-252.209s-1.011.138-1.011.781,1.149.6,1.471.322" transform="translate(-102.74 258.789)" fill="#f7e4cd"/>
          <path id="path46" d="M43.884-235.877s-1.747-1.057-1.93-.046-.6,1.747.276,2.8l-.6-.184-.552-1.425-.184-1.379,1.057-1.1,1.2.092.689.552.046.689" transform="translate(-36.385 245.444)" fill="#f7e4cd" fill-rule="evenodd"/>
          <path id="path48" d="M75.1-304.158s.781-4.045,4.734-4.826c3.254-.643,4.964.138,5.608.873,0,0-2.9-3.447-5.654-2.39s-4.78,2.988-4.734,4.229a20.207,20.207,0,0,1,.046,2.114" transform="translate(-66.775 310.83)" fill="#f7e4cd" fill-rule="evenodd"/>
          <path id="path50" d="M161.025-283.046s-1.333-.046-1.379,1.149a.914.914,0,0,0,.092.368s1.057-1.2,1.7-.552" transform="translate(-142.035 286.224)" fill="#f7e4cd" fill-rule="evenodd"/>
          <path id="path52" d="M97.906-277.046s-.229-1.834-1.793-.768c-1.011.689-.919,1.655-.735,1.839s.134.554.274.3.094-1.082.6-1.311,1.334-.487,1.656-.059" transform="translate(-84.753 281.866)" fill="#f7e4cd" fill-rule="evenodd"/>
          <path id="path54" d="M32.983-165.922l-4.321,1.931s1.793,7.124.873,9.331l-.644-.23-.046-2.712-1.195-5.148-.506-1.425,4.5-3.033,1.333,1.287" transform="translate(-24.151 183.165)" fill="#49728b" fill-rule="evenodd"/>
          <path id="path56" d="M82.36-119.822l.613.748v2.758h-.736s-.092-1.93-.092-2.16.092-1.057.092-1.057" transform="translate(-73.084 141.006)" fill="#49728b" fill-rule="evenodd"/>
          <path id="path58" d="M67.547-84.292l-2.068.092.6.414,1.471.23" transform="translate(-58.255 109.396)" fill="#49728b" fill-rule="evenodd"/>
          <path id="path60" d="M148.4-88.831l1.7-.046.414,4.229-1.747.23-.368-4.413" transform="translate(-132.026 113.474)" fill="#335061" fill-rule="evenodd"/>
          <path id="path62" d="M152.563-163.712l2.574-.138s1.057-2.666,1.057-2.8.919-3.861.919-3.861l-2.068-2.16-.414-.368-1.1,1.1v4.275l-.965,3.953" transform="translate(-135.733 188.355)" fill="#335061" fill-rule="evenodd"/>
          <path id="path64" d="M150-91.376l-1.609.322.23,1.287c.6.276,1.609-.46,1.609-.46" transform="translate(-132.026 115.698)" fill="#49728b" fill-rule="evenodd"/>
          <path id="path66" d="M163.4-172.077l3.217,2.39.092-1.1-2.436-2.252-.873.965" transform="translate(-145.371 188.355)" fill="#49728b" fill-rule="evenodd"/>
          <path id="path68" d="M86.565-79.4l-.952-3.862-.473-2.849-.078-2.115,4.307-.229h2.68L91.8-83.633l.414,3.723-.046.689-3.493.276-2.114-.46" transform="translate(-75.678 113.104)" fill="#fff" fill-rule="evenodd"/>
          <path id="path70" d="M119.254-91.1a40.654,40.654,0,0,0,.46,8.182,8.781,8.781,0,0,1-3.4,1.1l3.861-.138.46-.276-.552-7.538-.138-1.609" transform="translate(-103.481 115.699)" fill="#dcd9d8" fill-rule="evenodd"/>
          <path id="path72" d="M164.3-95.02l1.793-.506,3.4-.184L170-97.273l-.919-2.712-1.057-.138-1.471.46-1.411.689-.749-.137-.584.229" transform="translate(-145.742 123.48)" fill="#fff" fill-rule="evenodd"/>
          <path id="path74" d="M167.979-88.529a6.732,6.732,0,0,1,1.379-.506l-.505-2.528.6-.23s.414,2.39.414,2.666c0,0,2.574.138,2.8.138a4.175,4.175,0,0,0,.414-2.16l.506,1.471.046.827-.735,1.1-.827.184-1.379-.046-.46-.6-1.609.23-.506.184" transform="translate(-149.448 116.068)" fill="#dcd9d8" fill-rule="evenodd"/>
          <path id="path76" d="M134.923-129.972l-1.011-2.574-1.057-1.517s.23-.644.552-.644h1.057l1.011.368-.092,1.7-.46,2.666" transform="translate(-118.199 154.248)" fill="#fff"/>
          <path id="path78" d="M134.49-131.591a21.421,21.421,0,0,1-1.287-2.85s.23-.552.552-.414,1.011.506,1.011.506v-.873l-1.563-.322-1.057.138,1.793,4.229.368.046" transform="translate(-117.569 154.993)" fill="#dcd9d8" fill-rule="evenodd"/>
          <path id="path80" d="M82.531-158.788l-1.273-.138-1.2-.368v.414l.584.644,1.839.827" transform="translate(-71.23 176.123)" fill="#fff"/>
          <path id="path82" d="M82.7-153.456a5.08,5.08,0,0,0,1.885.46l.046.551-1.287-.275-.781-.552.138-.184" transform="translate(-73.456 170.93)" fill="#dcd9d8" fill-rule="evenodd"/>
          <path id="path84" d="M149.78-153.83a8.733,8.733,0,0,1-2.1-.29,6.524,6.524,0,0,1,.026-.683,1.643,1.643,0,0,1,.72-.151,1.253,1.253,0,0,0-.8-.09,1.279,1.279,0,0,0-.133-.422c.439-.157,1.474-1.183,2.056-.843.277.162.4,1.085.417,1.534a1.565,1.565,0,0,1-.185.945" transform="translate(-131.222 173.529)" fill="#d33833" fill-rule="evenodd"/>
          <path id="path86" d="M149.78-153.83a8.733,8.733,0,0,1-2.1-.29,6.524,6.524,0,0,1,.026-.683,1.643,1.643,0,0,1,.72-.151,1.253,1.253,0,0,0-.8-.09,1.279,1.279,0,0,0-.133-.422c.439-.157,1.474-1.183,2.056-.843.277.162.4,1.085.417,1.534A1.565,1.565,0,0,1,149.78-153.83Z" transform="translate(-131.222 173.529)" fill="none" stroke="#d33833" stroke-width="2.5"/>
          <path id="path88" d="M106.937-153.477c0,.059,0,.118-.007.178-.244.16-.637.158-.9.292a2.349,2.349,0,0,1,.972.246q-.009.223-.017.446a15.872,15.872,0,0,1-1.38,1.047,3.652,3.652,0,0,1-1.385.423c-.15-.035-.163-.22-.223-.4a5.656,5.656,0,0,1-.446-1.535c-.033-.712-.1-1.906.663-1.76a6.857,6.857,0,0,1,1.819.665,1.876,1.876,0,0,0,.907.392" transform="translate(-92.109 171.9)" fill="#d33833" fill-rule="evenodd"/>
          <path id="path90" d="M106.937-153.477c0,.059,0,.118-.007.178-.244.16-.637.158-.9.292a2.349,2.349,0,0,1,.972.246q-.009.223-.017.446a15.872,15.872,0,0,1-1.38,1.047,3.652,3.652,0,0,1-1.385.423c-.15-.035-.163-.22-.223-.4a5.656,5.656,0,0,1-.446-1.535c-.033-.712-.1-1.906.663-1.76a6.857,6.857,0,0,1,1.819.665A1.876,1.876,0,0,0,106.937-153.477Z" transform="translate(-92.109 171.9)" fill="none" stroke="#d33833" stroke-width="2.5"/>
          <path id="path92" d="M137.444-145.133a2.631,2.631,0,0,1-.116-.837c1.035-.69,1.229,1.185.116.837" transform="translate(-122.173 164.407)" fill="#d33833" fill-rule="evenodd"/>
          <path id="path94" d="M137.444-145.133a2.631,2.631,0,0,1-.116-.837C138.363-146.661,138.557-144.786,137.444-145.133Z" transform="translate(-122.173 164.407)" fill="none" stroke="#d33833" stroke-width="2.5"/>
          <path id="path96" d="M146.831-156.531s-.322-.46-.092-.6.46,0,.6-.23,0-.368.046-.644.276-.322.506-.368.873-.138.965.092l-.276-.827-.552-.184-1.747,1.011-.092.506v1.011" transform="translate(-130.061 176.119)" fill="#ef3d3a" fill-rule="evenodd"/>
          <path id="path98" d="M101.257-152.784q-.083-1.076-.179-2.15c-.1-1.07.257-.883,1.185-.883a2.445,2.445,0,0,1,.925.276c.251.512-.419.4.289.784.6.326,1.653-.2,1.412-.922-.135-.161-.7-.05-.908-.156l-1.077-.558c-.457-.237-1.513-.583-2-.251-1.234.839.078,2.937.518,3.812" transform="translate(-89.313 173.889)" fill="#ef3d3a" fill-rule="evenodd"/>
          <path id="path100" d="M99.286-274.166c-1.253-.292-1.875.524-2.255,1.371-.339-.082-.2-.543-.119-.778a2.128,2.128,0,0,1,1.866-1.326c.318.048.748.338.507.734" transform="translate(-86.133 278.986)" fill="#231f20" fill-rule="evenodd"/>
          <path id="path102" d="M167.77-255.232l.059,0a12.957,12.957,0,0,0,.885,1.73c-.239.557-1.812,1.05-1.787.05.34-.149.927-.03,1.228-.22a3.411,3.411,0,0,1-.386-1.562" transform="translate(-148.513 261.479)" fill="#231f20" fill-rule="evenodd"/>
          <path id="path104" d="M116.83-255.094a5.254,5.254,0,0,0,.738,1.382c.172.168.506.372.341.838a1.062,1.062,0,0,1-.485.4c-.6.176-1.988.036-1.517-.708.494.023,1.157.321,1.526-.038-.283-.453-.789-1.349-.6-1.877" transform="translate(-103.035 261.355)" fill="#231f20" fill-rule="evenodd"/>
          <path id="path106" d="M142.859-246.172a4.976,4.976,0,0,1-3.374,1.06,1,1,0,0,1-.129-1.284c.159.274.059.777.5.852.836.143,1.808-.511,2.409-.74.373-.628-.032-.859-.368-1.264-.687-.829-1.609-1.856-1.576-3.1.278-.2.3.307.342.4a11.338,11.338,0,0,0,1.922,2.633c.162.177.428.347.458.464.085.34-.222.748-.187.975" transform="translate(-123.825 257.439)" fill="#231f20" fill-rule="evenodd"/>
          <path id="path108" d="M50.991-228.056c-.282-.161-.349-.869-.68-.889-.473-.029-.386.919-.385,1.473a1.73,1.73,0,0,1-.144-1.672c-.272-.134-.394.148-.545.247.194-1.411,2.064-.654,1.753.841" transform="translate(-43.807 238.715)" fill="#231f20" fill-rule="evenodd"/>
          <path id="path110" d="M159.466-204.4a2.587,2.587,0,0,1-2.238,1.7,3.031,3.031,0,0,1,0-.8,6.451,6.451,0,0,0,2.236-.9" transform="translate(-139.86 216.255)" fill="#231f20" fill-rule="evenodd"/>
          <path id="path112" d="M124.408-199.721a7.77,7.77,0,0,0,3.286.425,3.725,3.725,0,0,1,.058.806c-1.368.068-2.986-.27-3.344-1.23" transform="translate(-110.684 212.091)" fill="#231f20" fill-rule="evenodd"/>
          <path id="path114" d="M120.378-192.761c.541,1.359,2.4,1.2,3.972,1.165a.839.839,0,0,1-.405.46,3.982,3.982,0,0,1-2.588-.011,3.541,3.541,0,0,1-.97-1.079c-.117-.151-.7-.535-.009-.536" transform="translate(-106.803 205.899)" fill="#231f20" fill-rule="evenodd"/>
          <path id="path116" d="M155.837-129.761a27.72,27.72,0,0,1-2,3.166,15.251,15.251,0,0,0,.5-3.67,1.157,1.157,0,0,1,1.5.5" transform="translate(-136.869 150.398)" fill="#81b0c4" fill-rule="evenodd"/>
          <path id="path118" d="M187.574-89.326c-.711.142-1.211.834-1.905.789a2.272,2.272,0,0,1,1.905-.789" transform="translate(-165.187 113.874)" fill="#231f20" fill-rule="evenodd"/>
          <path id="path120" d="M190.873-80.611a10.423,10.423,0,0,1-1.849.107c.278-.425,1.351-.279,1.849-.107" transform="translate(-168.172 106.272)" fill="#231f20" fill-rule="evenodd"/>
          <path id="path122" d="M190.822-72.628c-.652.014-1.462,0-2.081-.051.366-.394,1.658-.146,2.081.051" transform="translate(-167.92 99.249)" fill="#231f20" fill-rule="evenodd"/>
          <path id="path124" d="M154.508-46.793a15.318,15.318,0,0,1,.377,2.544,2.664,2.664,0,0,1-1.05.227c-.034-.762-.136-1.926-.105-2.652.237.016.588-.17.778-.119" transform="translate(-136.766 76.041)" fill="#dcd9d8" fill-rule="evenodd"/>
          <path id="path126" d="M131.068-156.061c-.327.214-.606.48-.92.708a2.027,2.027,0,0,1-1.589-.448c.008-.032.06-.018.062-.057.746.332,1.694-.135,2.448-.2" transform="translate(-114.377 173.247)" fill="#f0d6b7" fill-rule="evenodd"/>
          <path id="path128" d="M115.806-124.781c.2-.888,1.008-1.348,1.737-1.837a14.672,14.672,0,0,1,1.715,3.37,17.572,17.572,0,0,1-3.452-1.532" transform="translate(-103.031 147.053)" fill="#81b0c4" fill-rule="evenodd"/>
          <path id="path130" d="M37.848-282.489c-.03.726.071,1.891.105,2.652a2.665,2.665,0,0,0,1.05-.227,15.319,15.319,0,0,0-.377-2.544C38.436-282.658,38.086-282.473,37.848-282.489Zm-7.517-4.13a37.957,37.957,0,0,0,1.625,7.978,10.574,10.574,0,0,0,5.8.105c-.3-1.463-.172-3.243-.35-4.8-.134-1.173-.066-2.354-.25-3.55A19.875,19.875,0,0,0,30.331-286.618Zm7.3-.253c-.017,1.257.056,2.5.152,3.755.483-.072.81-.121,1.259-.219a27.054,27.054,0,0,0-.424-3.646A2.99,2.99,0,0,0,37.631-286.871Zm2.448-.2a3.006,3.006,0,0,0-.715,0c.1,1.025.352,2.155.44,3.231a2.992,2.992,0,0,0,.811-.206A6.5,6.5,0,0,0,40.079-287.074Zm3.707,3.387a1.593,1.593,0,0,0,.968-1.956,9.252,9.252,0,0,0-.631-2.137c-.19-.287-.7-.663-1.115-.4-.668.428-1.845.552-2.333,1.07a17.265,17.265,0,0,1,.421,2.962,8.728,8.728,0,0,1,2.556.069,9.724,9.724,0,0,0-1.532.387,3.2,3.2,0,0,0,1.666.005Zm-6.674-4.365a14.671,14.671,0,0,0-1.715-3.37c-.729.489-1.532.949-1.737,1.837A17.57,17.57,0,0,0,37.112-288.052Zm1.243-3.671a15.249,15.249,0,0,1-.5,3.67,27.72,27.72,0,0,0,2-3.166A1.157,1.157,0,0,0,38.354-291.723Zm-1.409-.5c-.286-.031-.528.328-.9.173-.085.094-.162.2-.249.288a21.731,21.731,0,0,1,1.826,3.552A15.588,15.588,0,0,0,38-291.766C37.532-291.737,37.273-292.189,36.946-292.223Zm-.906-1.2a2.631,2.631,0,0,0,.116.837C37.269-292.234,37.075-294.109,36.04-293.419Zm-1.234-.405a6.859,6.859,0,0,0-1.819-.665c-.768-.147-.7,1.047-.663,1.76a5.656,5.656,0,0,0,.446,1.535c.06.175.073.361.223.4a3.652,3.652,0,0,0,1.385-.423,15.879,15.879,0,0,0,1.38-1.047q.009-.223.017-.446a2.348,2.348,0,0,0-.972-.246c.267-.134.66-.133.9-.292,0-.06,0-.119.007-.178a1.876,1.876,0,0,1-.907-.392Zm-4.58-.832c-.4.4,1.116.955,1.6.984,0-.256.146-.5.116-.68A5.089,5.089,0,0,1,30.226-294.656Zm4.9.19c0,.039-.053.025-.062.057a2.026,2.026,0,0,0,1.589.448c.314-.228.593-.495.92-.708C36.822-294.6,35.874-294.134,35.128-294.466Zm4.5,1.364c-.022-.449-.139-1.372-.417-1.533-.582-.34-1.617.686-2.056.843a1.28,1.28,0,0,1,.133.422,1.253,1.253,0,0,1,.8.09,1.642,1.642,0,0,0-.72.151,6.511,6.511,0,0,0-.026.683,8.736,8.736,0,0,0,2.1.29A1.565,1.565,0,0,0,39.628-293.1Zm-10.072-1.163c-.125-.089-.97-1.189-1.086-1.143a18.19,18.19,0,0,0-4.238,2.633,23.094,23.094,0,0,1,1.8,8.907c1.4.653,2.622,1.594,4.517,1.693-.219-1.551-.419-2.935-.544-4.4-.476-.2-1.159.009-1.6-.062,0-.537.68-.235.737-.6.043-.273-.376-.294-.24-.724.348.127.531.406.9.511.339-.742,0-2.056.044-2.676.009-.117.058-.646.319-.553.231.082-.013,1.407.012,1.994a3.082,3.082,0,0,0,.154,1.4A52.3,52.3,0,0,1,36-287.738a13.728,13.728,0,0,1-1.521-.684c-.308-.173-1.277-.534-1.366-.827-.142-.466.372-.714.459-1.113-.924.5-1.1-.483-1.323-1.182a9.191,9.191,0,0,1-.359-1.472A15.918,15.918,0,0,1,29.556-294.265Zm9.264-1.01c1.275-.618,1.5,2.31,1,3.253.077.281.343.389.451.642-.711,1.274-1.5,2.463-2.227,3.723.54-.336,1.311-.06,1.946-.312.232-.092.4-.623.576-1.049a22.808,22.808,0,0,0,1.217-3.762,4.759,4.759,0,0,0,.159-1.035c-.056-.405-.606-.706-.885-.957-.515-.463-.84-.871-1.378-1.3C39.466-295.754,39-295.537,38.819-295.276Zm-12.178-11.3c-.607.668-.48,1.92-.407,2.811a1.632,1.632,0,0,1,2.541,1.229c.524-.014.2-.655.1-1.067-.31-1.348.522-2.813.038-4.045A3.331,3.331,0,0,0,26.641-306.578Zm4.346-3.878c-1.375.39-3.137,1.389-3.7,2.624.437-.064.741-.284,1.173-.311a2.885,2.885,0,0,0,.564.022c.374-.093.689-.93.971-1.242s.6-.434.831-.712c.145-.07.36-.065.368-.283C31.128-310.427,31.062-310.478,30.986-310.457Zm7.157.367c-1.427-.805-3.843-1.411-5.361-.654-1.225.611-2.881,1.621-3.445,2.9.527,1.236-.156,2.368-.2,3.622-.023.668.314,1.25.34,1.977-.18.3-.732.334-1.113.314-.128-.643-.353-1.365-1.015-1.438a1.537,1.537,0,0,0-1.664,1.483c-.05.953.732,2.532,1.84,2.422.428-.042.533-.472,1-.467.253.5-.39.663-.456,1.024a2.9,2.9,0,0,0,.094.628,8.576,8.576,0,0,0,1.092,2.542c.561.8,1.662.924,2.848,1,.212-.456.991-.419,1.5-.3a5.023,5.023,0,0,1-1.644-1.343,3.374,3.374,0,0,1-1.112-2.007c1.018,1.413,1.86,2.647,3.712,3.268a4.936,4.936,0,0,0,4.114-.971,4.727,4.727,0,0,0,1.031-1.269,10.759,10.759,0,0,0,1.621-6.513,7.228,7.228,0,0,0-.375-2.6c-.342-.686-1.5-1.3-2.176-.679-.125-.667.563-1.08,1.372-.84A7.649,7.649,0,0,0,38.144-310.09Zm2.659,22c1.115-.554,3.2-1.492,3.9,0a12.668,12.668,0,0,1,.694,2.05c.189.8-.2,2.488-1.029,2.757a4.893,4.893,0,0,1-2.455.047,1.336,1.336,0,0,1-.3-.392,3.387,3.387,0,0,0-1.708.291c.047.463-.266.537-.56.633-.218.863.436,1.991.279,2.778-.112.561-.8.648-1.309.753a4.308,4.308,0,0,0,.057.835,1.266,1.266,0,0,1-1.129.73,14.181,14.181,0,0,1-5.643-.278c-.435-1.067-.778-2.366-1.141-3.585-1.521.162-2.751-.656-3.911-1.193-.4-.186-.957-.289-1.107-.608a5.473,5.473,0,0,1-.122-1.463,22.227,22.227,0,0,0-.548-4.276c-.17-.658-.465-1.238-.672-1.871a13.5,13.5,0,0,1-.611-1.9c-.129-.868.688-.916,1.211-1.292.808-.581,1.442-.9,2.316-1.428a5.276,5.276,0,0,0,1.129-.73c.177-.359-.3-.866-.432-1.147a3.451,3.451,0,0,1-.338-1.263,2.436,2.436,0,0,1-1.626-1.045,4.006,4.006,0,0,1-.46-3.47c.038-.09.226-.268.254-.407a4.7,4.7,0,0,0-.113-.927c-.051-1.491.252-2.775,1.256-3.224.407-1.623,1.865-2.162,3.239-2.969a10.187,10.187,0,0,1,1.664-.709c2.1-.772,5.315-.626,7.055.69a9.473,9.473,0,0,1,2.34,2.59c1.114,2.253,1.035,6.018.256,8.758A8.816,8.816,0,0,1,40.769-298c-.148.309-.608.926-.552,1.2s1.049,1.034,1.261,1.239c.383.369,1.11.859,1.168,1.325a4.689,4.689,0,0,1-.361,1.652c-.477,1.6-.943,3.072-1.484,4.5" transform="translate(-20.885 311.855)" fill="#231f20" fill-rule="evenodd"/>
          <path id="path132" d="M112.862-197.428c.061-.081.393-.2.858.021,0,0-.552.092-.506,1.012l-.23-.046s-.238-.834-.123-.987" transform="translate(-100.384 210.146)" fill="#f7e4cd" fill-rule="evenodd"/>
          <path id="path134" d="M145.568-126.957a.253.253,0,0,1-.253.253.253.253,0,0,1-.253-.253.253.253,0,0,1,.253-.253.253.253,0,0,1,.253.253" transform="translate(-129.06 147.579)" fill="#1d1919" fill-rule="evenodd"/>
          <path id="path136" d="M147.859-116.332a.253.253,0,0,1-.253.253.253.253,0,0,1-.253-.253.253.253,0,0,1,.253-.253.253.253,0,0,1,.253.253" transform="translate(-131.099 138.126)" fill="#1d1919" fill-rule="evenodd"/>
        </g>
      </g>
      <g id="Page-1" transform="translate(154.893 84.473)">
        <g id="Fill-1-_-Group-24" data-name="Fill-1-+-Group-24" transform="translate(0 0)">
          <g id="Group-24">
            <g id="Group">
              <path id="Fill-4" d="M72.361,93.013h0L78.3,74.734H66.421l5.939,18.279Z" transform="translate(-56.212 -63.247)" fill="#e24329" fill-rule="evenodd"/>
              <path id="Fill-6" fill="#fc6d26" fill-rule="evenodd"/>
              <path id="Fill-8" d="M26.531,93.013,20.592,74.734H12.268Z" transform="translate(-10.383 -63.247)" fill="#fc6d26" fill-rule="evenodd"/>
              <path id="Fill-10" fill="#fc6d26" fill-rule="evenodd"/>
              <path id="Fill-12" d="M2,74.734H2l-1.8,5.555a1.23,1.23,0,0,0,.447,1.375L16.262,93.013Z" transform="translate(-0.114 -63.247)" fill="#fca326" fill-rule="evenodd"/>
              <path id="Fill-14" fill="#fc6d26" fill-rule="evenodd"/>
              <path id="Fill-16" d="M12.269,11.779h8.324L17.015.77a.615.615,0,0,0-1.169,0Z" transform="translate(-10.383 -0.292)" fill="#e24329" fill-rule="evenodd"/>
              <path id="Fill-18" d="M105.061,93.013,111,74.734h8.324Z" transform="translate(-88.912 -63.247)" fill="#fc6d26" fill-rule="evenodd"/>
              <path id="Fill-20" d="M119.324,74.734h0l1.8,5.555a1.23,1.23,0,0,1-.447,1.375L105.061,93.013Z" transform="translate(-88.912 -63.247)" fill="#fca326" fill-rule="evenodd"/>
              <path id="Fill-22" d="M152.025,11.779H143.7L147.278.77a.615.615,0,0,1,1.169,0Z" transform="translate(-121.613 -0.292)" fill="#e24329" fill-rule="evenodd"/>
            </g>
          </g>
        </g>
      </g>
      <path id="Swift_logo" d="M24.821,27.447c-3.876,2.239-9.206,2.469-14.568.171A22.783,22.783,0,0,1,0,18.843a17.276,17.276,0,0,0,3.787,2.309c5.537,2.6,11.074,2.418,14.97.007l-.006-.007A79.494,79.494,0,0,1,4.988,6.835,15.809,15.809,0,0,1,3.14,4.341,106.6,106.6,0,0,0,16.534,14.5,98.693,98.693,0,0,1,7.112,2.679,93.688,93.688,0,0,0,22.631,15.426c.248.14.439.256.592.36a12.153,12.153,0,0,0,.424-1.283C24.94,9.791,23.462,4.434,20.229,0,27.71,4.526,32.145,13.024,30.3,20.137q-.072.288-.157.567l.065.08c3.694,4.619,2.679,9.514,2.217,8.59-2-3.922-5.714-2.723-7.6-1.927Z" transform="translate(13.207 84.473)" fill="url(#linear-gradient)"/>
    </g>
    <path id="keyboard_arrow_right-24px" d="M9.314,16.671l4.2-4.2-4.2-4.2a1.08,1.08,0,1,1,1.528-1.528l4.974,4.973a1.079,1.079,0,0,1,0,1.528l-4.974,4.973a1.079,1.079,0,0,1-1.528,0,1.1,1.1,0,0,1,0-1.539Z" transform="translate(1048.546 327.582)"/>
    <path id="keyboard_arrow_right-24px-2" data-name="keyboard_arrow_right-24px" d="M15.816,16.671l-4.2-4.2,4.2-4.2a1.08,1.08,0,0,0-1.528-1.528L9.314,11.708a1.079,1.079,0,0,0,0,1.528l4.974,4.973a1.079,1.079,0,0,0,1.528,0,1.1,1.1,0,0,0,0-1.539Z" transform="translate(815.3 327.583)" opacity="0.12"/>
  </g>
</svg>
