<svg id="invision_1_" data-name="invision (1)" xmlns="http://www.w3.org/2000/svg" width="29.429" height="29.429" viewBox="0 0 29.429 29.429">
  <path id="Path_11989" data-name="Path 11989" d="M26.761,0H2.668A2.668,2.668,0,0,0,0,2.668V26.761a2.668,2.668,0,0,0,2.668,2.668H26.761a2.668,2.668,0,0,0,2.668-2.668V2.668A2.668,2.668,0,0,0,26.761,0" fill="#dc395f"/>
  <path id="Path_11990" data-name="Path 11990" d="M51.158,53.271a1.772,1.772,0,1,0-1.8-1.772,1.777,1.777,0,0,0,1.8,1.772M47.43,62.757a6.084,6.084,0,0,0-.159,1.331,2.372,2.372,0,0,0,2.644,2.6,4.207,4.207,0,0,0,3.57-2.315L52.954,66.5h2.961l1.692-6.787C58.03,58,58.849,57.1,60.092,57.1a1.48,1.48,0,0,1,1.586,1.613,3.167,3.167,0,0,1-.132.952l-.873,3.12a4.689,4.689,0,0,0-.185,1.322,2.413,2.413,0,0,0,2.7,2.564c1.56,0,2.8-1,3.49-3.41l-1.163-.449c-.582,1.612-1.084,1.9-1.481,1.9s-.608-.264-.608-.793a3.508,3.508,0,0,1,.132-.82l.846-3.039a6.7,6.7,0,0,0,.291-1.928c0-2.274-1.375-3.46-3.04-3.46-1.56,0-3.146,1.407-3.939,2.888l.581-2.658H53.774l-.635,2.341h2.115l-1.3,5.214a3.316,3.316,0,0,1-3.137,2.258c-.387-.087-.635-.234-.635-.737a4.986,4.986,0,0,1,.185-1.21l1.983-7.866H47.325l-.635,2.341h2.088L47.43,62.757" transform="translate(-41.323 -44.011)" fill="#fff"/>
</svg>
