<svg id="Page-1" xmlns="http://www.w3.org/2000/svg" width="32.276" height="29.766" viewBox="0 0 32.276 29.766">
  <g id="Fill-1-_-Group-24" data-name="Fill-1-+-Group-24" transform="translate(0 0)">
    <g id="Group-24">
      <g id="Group">
        <path id="Fill-4" d="M72.361,93.013h0L78.3,74.734H66.421l5.939,18.279Z" transform="translate(-56.212 -63.247)" fill="#e24329" fill-rule="evenodd"/>
        <path id="Fill-6" fill="#fc6d26" fill-rule="evenodd"/>
        <path id="Fill-8" d="M26.531,93.013,20.592,74.734H12.268Z" transform="translate(-10.383 -63.247)" fill="#fc6d26" fill-rule="evenodd"/>
        <path id="Fill-10" fill="#fc6d26" fill-rule="evenodd"/>
        <path id="Fill-12" d="M2,74.734H2l-1.8,5.555a1.23,1.23,0,0,0,.447,1.375L16.262,93.013Z" transform="translate(-0.114 -63.247)" fill="#fca326" fill-rule="evenodd"/>
        <path id="Fill-14" fill="#fc6d26" fill-rule="evenodd"/>
        <path id="Fill-16" d="M12.269,11.779h8.324L17.015.77a.615.615,0,0,0-1.169,0Z" transform="translate(-10.383 -0.292)" fill="#e24329" fill-rule="evenodd"/>
        <path id="Fill-18" d="M105.061,93.013,111,74.734h8.324Z" transform="translate(-88.912 -63.247)" fill="#fc6d26" fill-rule="evenodd"/>
        <path id="Fill-20" d="M119.324,74.734h0l1.8,5.555a1.23,1.23,0,0,1-.447,1.375L105.061,93.013Z" transform="translate(-88.912 -63.247)" fill="#fca326" fill-rule="evenodd"/>
        <path id="Fill-22" d="M152.025,11.779H143.7L147.278.77a.615.615,0,0,1,1.169,0Z" transform="translate(-121.613 -0.292)" fill="#e24329" fill-rule="evenodd"/>
      </g>
    </g>
  </g>
</svg>
