<svg id="startup" xmlns="http://www.w3.org/2000/svg" width="61.778" height="63.836" viewBox="0 0 61.778 63.836">
  <path id="Path_11834" data-name="Path 11834" d="M69.006,346.839a9.259,9.259,0,0,0-9.25,8.947,7.18,7.18,0,0,0-9.333,2.883,6.178,6.178,0,0,0-8.187-1.866v-4.9H36.058v4.9a6.178,6.178,0,0,0-8.187,1.864,7.18,7.18,0,0,0-9.333-2.883,9.258,9.258,0,0,0-9.25-8.945H8.258v20.592H70.035V346.839Z" transform="translate(-8.258 -303.595)" fill="#f1f1f1"/>
  <path id="Path_11835" data-name="Path 11835" d="M189.827,47.384h-10.3l-3.846-11.965a24.255,24.255,0,0,1,8.994-27.16h0a24.256,24.256,0,0,1,8.994,27.16Z" transform="translate(-153.79 -7.228)" fill="#ff4667"/>
  <path id="Path_11836" data-name="Path 11836" d="M204.874,145.1l1.226,3.81h10.3l3.846-11.965a24.193,24.193,0,0,0,.567-12.7C216.454,137.1,209.544,142.695,204.874,145.1Z" transform="translate(-180.36 -108.752)" fill="#ff4667"/>
  <circle id="Ellipse_1264" data-name="Ellipse 1264" cx="5.148" cy="5.148" r="5.148" transform="translate(25.741 15.444)" fill="#fff"/>
  <path id="Path_11837" data-name="Path 11837" d="M224,322.064l-1.03,5.148H231.2l-1.03-5.148Z" transform="translate(-196.198 -281.909)" fill="#3c50e0"/>
  <g id="Group_17646" data-name="Group 17646" transform="translate(17.039 28.895)">
    <path id="Path_11838" data-name="Path 11838" d="M148.473,250.222l.777-5.439a2.06,2.06,0,0,1,2.039-1.768h2.332L150,231.755a12.152,12.152,0,0,0-1.529,18.467Z" transform="translate(-144.92 -231.755)" fill="#fdb400"/>
    <path id="Path_11839" data-name="Path 11839" d="M302.438,250.222l-.777-5.439a2.06,2.06,0,0,0-2.039-1.768H297.29l3.619-11.26a12.152,12.152,0,0,1,1.529,18.467Z" transform="translate(-278.292 -231.755)" fill="#fdb400"/>
  </g>
  <g id="Group_17647" data-name="Group 17647" transform="translate(0 42.214)">
    <path id="Path_11840" data-name="Path 11840" d="M35.027,348.029a7.14,7.14,0,0,0-7.084,1.732,8.263,8.263,0,0,0-6.3-2.944,8.111,8.111,0,0,0-2.217.309A10.244,10.244,0,0,0,9.287,338.58H8.257v2.059h1.03a8.189,8.189,0,0,1,8.172,7.354,8.246,8.246,0,0,0-2.544,2.309,10.241,10.241,0,0,0-6.658-2.456v2.059a8.247,8.247,0,0,1,8.237,8.237h2.059a10.231,10.231,0,0,0-2.162-6.3,6.2,6.2,0,0,1,2.56-2.354.04.04,0,0,0,.032-.01,6.119,6.119,0,0,1,2.66-.607,6.192,6.192,0,0,1,5.019,2.607,7.7,7.7,0,0,0-.9,3.571H27.82a5.571,5.571,0,0,1,.858-2.975h-.006c.014-.02.034-.034.048-.055a5.131,5.131,0,0,1,6.307-1.81v2.7h2.059v-8.237H35.027v3.354Z" transform="translate(-8.257 -338.58)" fill="#e0d2c1"/>
    <path id="Path_11841" data-name="Path 11841" d="M300.317,340.64h1.03v-2.059h-1.03a10.244,10.244,0,0,0-10.139,8.546,8.109,8.109,0,0,0-2.217-.309,8.262,8.262,0,0,0-6.3,2.944,7.14,7.14,0,0,0-7.084-1.732v-3.357h-2.059v8.237h2.059v-2.694a5.13,5.13,0,0,1,6.307,1.809c.014.021.034.035.048.055h-.006a5.571,5.571,0,0,1,.858,2.976h2.059a7.687,7.687,0,0,0-.9-3.571,6.192,6.192,0,0,1,5.019-2.607,6.1,6.1,0,0,1,2.66.61c.01.005.022.006.032.01a6.2,6.2,0,0,1,2.565,2.352,10.225,10.225,0,0,0-2.167,6.3h2.059a8.247,8.247,0,0,1,8.237-8.237v-2.059a10.247,10.247,0,0,0-6.658,2.456,8.246,8.246,0,0,0-2.544-2.309A8.189,8.189,0,0,1,300.317,340.64Z" transform="translate(-239.569 -338.58)" fill="#e0d2c1"/>
  </g>
  <g id="Group_17648" data-name="Group 17648" transform="translate(25.741 29.859)">
    <rect id="Rectangle_6149" data-name="Rectangle 6149" width="2.059" height="2.059" transform="translate(0)" fill="#c44639"/>
    <rect id="Rectangle_6150" data-name="Rectangle 6150" width="2.059" height="2.059" transform="translate(4.118)" fill="#c44639"/>
    <rect id="Rectangle_6151" data-name="Rectangle 6151" width="2.059" height="2.059" transform="translate(8.237)" fill="#c44639"/>
  </g>
  <rect id="Rectangle_6152" data-name="Rectangle 6152" width="2.059" height="2.059" transform="translate(11.326 54.57)" fill="#fff7ed"/>
  <rect id="Rectangle_6153" data-name="Rectangle 6153" width="2.059" height="2.059" transform="translate(0 38.096)" fill="#f0e4d6"/>
  <rect id="Rectangle_6154" data-name="Rectangle 6154" width="2.059" height="2.059" transform="translate(57.659 47.363)" fill="#fff7ed"/>
  <rect id="Rectangle_6155" data-name="Rectangle 6155" width="2.059" height="2.059" transform="translate(49.422 43.244)" fill="#f0e4d6"/>
  <rect id="Rectangle_6156" data-name="Rectangle 6156" width="2.059" height="2.059" transform="translate(38.096 59.718)" fill="#fff7ed"/>
  <rect id="Rectangle_6157" data-name="Rectangle 6157" width="2.059" height="2.059" transform="translate(59.718 36.037)" fill="#f0e4d6"/>
  <path id="Path_11842" data-name="Path 11842" d="M205.379,74.323H190.893c-.362.673-.7,1.357-1,2.059h16.484C206.082,75.68,205.742,75,205.379,74.323Z" transform="translate(-167.247 -65.056)" fill="#c44639"/>
  <path id="Path_11843" data-name="Path 11843" d="M221.679,146.581a5.14,5.14,0,0,0,8.586-5.652c-.059-.089-.119-.176-.184-.262Z" transform="translate(-195.069 -123.129)" fill="#3c50e0" opacity="0.2"/>
  <path id="Path_11844" data-name="Path 11844" d="M212.63,127.968a6.178,6.178,0,1,0-6.178-6.178A6.177,6.177,0,0,0,212.63,127.968Zm0-10.3a4.118,4.118,0,1,1-4.118,4.118A4.119,4.119,0,0,1,212.63,117.672Z" transform="translate(-181.741 -101.198)"/>
  <path id="Path_11845" data-name="Path 11845" d="M141.224,48.392a1.029,1.029,0,0,0,1.019-.883l.777-5.441a1.03,1.03,0,0,1,1.018-.883h3.136l-.782,3.913a1.031,1.031,0,0,0,.8,1.215,1.07,1.07,0,0,0,.206.021h8.237a1.03,1.03,0,0,0,1.03-1.03,1.067,1.067,0,0,0-.021-.206l-.783-3.913H159a1.031,1.031,0,0,1,1.018.884l.777,5.439a1.03,1.03,0,0,0,1.747.582,13.146,13.146,0,0,0,.013-18.592,13.014,13.014,0,0,0-1.073-.963l.01-.03A25.2,25.2,0,0,0,152.119.192a1.03,1.03,0,0,0-1.2,0,25.2,25.2,0,0,0-9.377,28.315l.01.03A13.146,13.146,0,0,0,140.5,48.09,1.028,1.028,0,0,0,141.224,48.392Zm13.159-4.118h-5.725l.618-3.089h4.489Zm9.922-6.413a11.067,11.067,0,0,1-1.8,7.039l-.446-3.123A3.1,3.1,0,0,0,159,39.125h-.921l2.726-8.482A11.1,11.1,0,0,1,164.305,37.861ZM151.521,2.309a23.248,23.248,0,0,1,6.087,6.957H145.434A23.247,23.247,0,0,1,151.521,2.309ZM144.4,11.326h14.246a23.149,23.149,0,0,1,.891,16.549l-.227.705h0l-3.39,10.545h-8.795l-3.39-10.545h0l-.227-.705A23.149,23.149,0,0,1,144.4,11.326Zm-5.663,26.535a11.1,11.1,0,0,1,3.5-7.218l2.724,8.482h-.921a3.1,3.1,0,0,0-3.057,2.652l-.446,3.123a11.074,11.074,0,0,1-1.8-7.04Z" transform="translate(-120.632 0)"/>
  <path id="Path_11846" data-name="Path 11846" d="M16.494,358.14h2.059a10.23,10.23,0,0,0-2.162-6.3,6.2,6.2,0,0,1,2.56-2.354.04.04,0,0,0,.032-.01,6.119,6.119,0,0,1,2.66-.607,6.192,6.192,0,0,1,5.019,2.607,7.7,7.7,0,0,0-.9,3.571H27.82a5.571,5.571,0,0,1,.858-2.975h-.006c.014-.02.034-.034.048-.055a5.131,5.131,0,0,1,6.307-1.81v2.7h2.059v-8.237H35.027v3.357a7.139,7.139,0,0,0-7.084,1.732,8.262,8.262,0,0,0-6.3-2.947,8.111,8.111,0,0,0-2.217.309,10.244,10.244,0,0,0-10.139-8.546H8.257v2.059h1.03a8.189,8.189,0,0,1,8.172,7.354,8.247,8.247,0,0,0-2.544,2.309,10.241,10.241,0,0,0-6.658-2.456V349.9A8.247,8.247,0,0,1,16.494,358.14Z" transform="translate(-8.257 -296.363)"/>
  <path id="Path_11847" data-name="Path 11847" d="M290.178,347.128a8.11,8.11,0,0,0-2.217-.309,8.262,8.262,0,0,0-6.3,2.944,7.14,7.14,0,0,0-7.084-1.732v-3.357h-2.059v8.237h2.059v-2.694a5.13,5.13,0,0,1,6.307,1.809c.014.021.034.035.048.055h-.006a5.572,5.572,0,0,1,.858,2.976h2.059a7.687,7.687,0,0,0-.9-3.571,6.192,6.192,0,0,1,5.019-2.607,6.1,6.1,0,0,1,2.66.609c.01.005.022.006.032.01a6.2,6.2,0,0,1,2.565,2.352,10.225,10.225,0,0,0-2.167,6.3h2.059a8.247,8.247,0,0,1,8.237-8.237v-2.059a10.247,10.247,0,0,0-6.658,2.456,8.247,8.247,0,0,0-2.544-2.31,8.189,8.189,0,0,1,8.172-7.354h1.03v-2.059h-1.03A10.243,10.243,0,0,0,290.178,347.128Z" transform="translate(-239.569 -296.368)"/>
  <rect id="Rectangle_6158" data-name="Rectangle 6158" width="2.059" height="2.059" transform="translate(25.741 29.859)"/>
  <rect id="Rectangle_6159" data-name="Rectangle 6159" width="2.059" height="2.059" transform="translate(29.859 29.859)"/>
  <rect id="Rectangle_6160" data-name="Rectangle 6160" width="2.059" height="2.059" transform="translate(33.978 29.859)"/>
  <rect id="Rectangle_6161" data-name="Rectangle 6161" width="2.059" height="2.059" transform="translate(11.326 54.57)"/>
  <rect id="Rectangle_6162" data-name="Rectangle 6162" width="2.059" height="2.059" transform="translate(0 38.096)"/>
  <rect id="Rectangle_6163" data-name="Rectangle 6163" width="2.059" height="2.059" transform="translate(57.659 47.363)"/>
  <rect id="Rectangle_6164" data-name="Rectangle 6164" width="2.059" height="2.059" transform="translate(49.422 43.244)"/>
  <rect id="Rectangle_6165" data-name="Rectangle 6165" width="2.059" height="2.059" transform="translate(38.096 59.718)"/>
  <rect id="Rectangle_6166" data-name="Rectangle 6166" width="2.059" height="2.059" transform="translate(59.718 36.037)"/>
</svg>
