<svg xmlns="http://www.w3.org/2000/svg" xmlns:xlink="http://www.w3.org/1999/xlink" width="32.906" height="29.487" viewBox="0 0 32.906 29.487">
  <defs>
    <linearGradient id="linear-gradient" x1="0.5" x2="0.5" y2="1" gradientUnits="objectBoundingBox">
      <stop offset="0" stop-color="#f88a36"/>
      <stop offset="1" stop-color="#fd2020"/>
    </linearGradient>
  </defs>
  <path id="Swift_logo" d="M24.821,27.447c-3.876,2.239-9.206,2.469-14.568.171A22.783,22.783,0,0,1,0,18.843a17.276,17.276,0,0,0,3.787,2.309c5.537,2.6,11.074,2.418,14.97.007l-.006-.007A79.494,79.494,0,0,1,4.988,6.835,15.809,15.809,0,0,1,3.14,4.341,106.6,106.6,0,0,0,16.534,14.5,98.693,98.693,0,0,1,7.112,2.679,93.688,93.688,0,0,0,22.631,15.426c.248.14.439.256.592.36a12.153,12.153,0,0,0,.424-1.283C24.94,9.791,23.462,4.434,20.229,0,27.71,4.526,32.145,13.024,30.3,20.137q-.072.288-.157.567l.065.08c3.694,4.619,2.679,9.514,2.217,8.59-2-3.922-5.714-2.723-7.6-1.927Z" transform="translate(0 0)" fill="url(#linear-gradient)"/>
</svg>
